<svg width="20" height="19" viewBox="0 0 20 19" fill="none" xmlns="http://www.w3.org/2000/svg">
<path d="M11.5 0.5C7.634 0.5 4.5 3.634 4.5 7.5C4.5 11.366 7.634 14.5 11.5 14.5C15.366 14.5 18.5 11.366 18.5 7.5C18.5 3.634 15.366 0.5 11.5 0.5ZM11.5 1.85484C14.6199 1.85484 17.1452 4.37967 17.1452 7.5C17.1452 10.6199 14.6203 13.1452 11.5 13.1452C8.38015 13.1452 5.85484 10.6203 5.85484 7.5C5.85484 4.38015 8.37967 1.85484 11.5 1.85484ZM15.4574 5.53173L14.8213 4.8905C14.6895 4.75769 14.4751 4.75682 14.3423 4.88858L10.3525 8.84629L8.66483 7.14492C8.5331 7.01212 8.31864 7.01124 8.18584 7.14297L7.54458 7.77907C7.41177 7.9108 7.4109 8.12526 7.54266 8.25809L10.105 10.8412C10.2368 10.974 10.4512 10.9749 10.584 10.8431L15.4555 6.01075C15.5883 5.87899 15.5891 5.66453 15.4574 5.53173Z" fill="#3A5DB6"/>
</svg>
