<svg width="60" height="60" viewBox="0 0 60 60" fill="none" xmlns="http://www.w3.org/2000/svg">
<g clip-path="url(#clip0_1149_33)">
<path fill-rule="evenodd" clip-rule="evenodd" d="M48.7005 0.105482L59.3278 4.98881C59.5284 5.08098 59.6983 5.22874 59.8175 5.41456C59.9366 5.60039 59.9999 5.81648 59.9999 6.03722V9.42258C60 9.57411 59.9701 9.72415 59.9121 9.86415C59.8541 10.0041 59.7692 10.1313 59.662 10.2385C59.5549 10.3456 59.4277 10.4306 59.2877 10.4886C59.1477 10.5466 58.9977 10.5764 58.8461 10.5764H49.2081V12.7913C49.2081 14.479 49.9842 15.0527 51.0585 15.8469C52.2021 16.692 53.6252 17.744 53.6252 20.1856C53.6252 21.6631 53.0382 23.0801 51.9935 24.1248C50.9487 25.1696 49.5317 25.7565 48.0542 25.7565C46.5767 25.7565 45.1598 25.1696 44.115 24.1248C43.0703 23.0801 42.4833 21.6631 42.4833 20.1856C42.4824 20.0335 42.5115 19.8827 42.5691 19.7418C42.6267 19.601 42.7115 19.473 42.8188 19.3651C42.926 19.2572 43.0535 19.1716 43.194 19.1131C43.3344 19.0547 43.4851 19.0246 43.6372 19.0246C43.7893 19.0246 43.9399 19.0547 44.0804 19.1131C44.2208 19.1716 44.3484 19.2572 44.4556 19.3651C44.5628 19.473 44.6477 19.601 44.7053 19.7418C44.7628 19.8827 44.792 20.0335 44.791 20.1856C44.7942 21.049 45.1394 21.8759 45.751 22.4853C46.3627 23.0947 47.1909 23.4369 48.0543 23.4369C48.9177 23.4369 49.7459 23.0947 50.3575 22.4853C50.9691 21.8759 51.3143 21.049 51.3175 20.1856C51.3175 18.9623 50.7881 18.5166 49.6868 17.7025C48.5108 16.8333 46.9004 15.6428 46.9004 12.7913V10.5764H29.8871V18.7705C29.8871 18.922 29.8572 19.0721 29.7993 19.2121C29.7413 19.3521 29.6563 19.4793 29.5492 19.5864C29.442 19.6936 29.3148 19.7785 29.1749 19.8365C29.0349 19.8945 28.8848 19.9244 28.7333 19.9244H21.6532V48.0766H25.5891C25.7407 48.0766 25.8907 48.1064 26.0307 48.1644C26.1707 48.2224 26.2979 48.3075 26.405 48.4147L31.7301 53.7399C31.8374 53.847 31.9224 53.9742 31.9804 54.1142C32.0384 54.2542 32.0683 54.4042 32.0682 54.5558V58.8462C32.0682 58.9977 32.0384 59.1477 31.9804 59.2877C31.9224 59.4277 31.8375 59.5549 31.7303 59.6621C31.6232 59.7692 31.4959 59.8542 31.356 59.9122C31.216 59.9702 31.0659 60 30.9144 60H1.15383C1.00231 60 0.852253 59.9702 0.712264 59.9122C0.572274 59.8542 0.445076 59.7692 0.337932 59.662C0.230789 59.5549 0.145803 59.4277 0.087817 59.2877C0.0298312 59.1477 2.44452e-09 58.9977 2.44452e-09 58.8462V54.5558C-9.85853e-06 54.4043 0.0298141 54.2542 0.0877903 54.1142C0.145766 53.9743 0.230745 53.8471 0.337879 53.7399L5.66318 48.4147C5.77031 48.3075 5.89751 48.2224 6.03751 48.1644C6.17752 48.1064 6.32756 48.0766 6.47911 48.0766H11.0769V10.5764H7.84618V15.1963C7.8443 15.5011 7.72192 15.7928 7.50573 16.0076C7.28955 16.2225 6.99711 16.3431 6.69232 16.3431C6.38752 16.3431 6.09511 16.2225 5.87893 16.0076C5.66274 15.7928 5.54036 15.5011 5.53848 15.1963V10.5764H2.30748V15.1963C2.30374 15.4998 2.18054 15.7897 1.96458 16.003C1.74861 16.2163 1.45731 16.3359 1.15375 16.3359C0.850199 16.3359 0.558867 16.2163 0.342903 16.003C0.12694 15.7897 0.00373983 15.4998 2.44452e-09 15.1963V1.15386C2.44452e-09 1.00234 0.0298312 0.85228 0.087817 0.71229C0.145803 0.5723 0.230789 0.445103 0.337932 0.337959C0.445076 0.230815 0.572274 0.145829 0.712264 0.0878437C0.852253 0.029858 1.00231 0 1.15383 0H48.2187C48.385 3.24669e-05 48.5494 0.0360161 48.7005 0.105482ZM29.7606 57.6923V55.0338L25.1111 50.3843H6.95708L2.30767 55.0338V57.6923H29.7606ZM13.3848 10.6684V48.0766H19.3457V10.6684H13.3848ZM21.6532 17.6167H27.5796L27.5794 10.5764H21.6532V17.6167ZM2.3081 8.26869H57.6924L57.6927 6.77685L47.9667 2.30772H2.3081V8.26869ZM54.2727 26.2011C54.4057 26.2737 54.5231 26.3718 54.6182 26.4898C54.6182 26.4898 59.7592 32.8716 59.7658 32.8831C59.9169 33.0815 59.999 33.3238 59.9998 33.5731V40.4878C59.9998 40.6393 59.97 40.7894 59.912 40.9294C59.854 41.0694 59.769 41.1966 59.6618 41.3037C59.5547 41.4109 59.4275 41.4959 59.2875 41.5539C59.1475 41.6118 58.9975 41.6417 58.8459 41.6417H37.2622C37.1107 41.6417 36.9607 41.6118 36.8207 41.5539C36.6807 41.4959 36.5535 41.4109 36.4463 41.3037C36.3392 41.1966 36.2542 41.0694 36.1962 40.9294C36.1382 40.7894 36.1084 40.6393 36.1084 40.4878V33.5731C36.1091 33.3238 36.1913 33.0815 36.3424 32.8831C36.349 32.8716 41.49 26.4898 41.49 26.4898C41.5851 26.3718 41.7025 26.2737 41.8355 26.2011C41.9685 26.1285 42.1144 26.0828 42.2651 26.0667C42.4158 26.0505 42.5681 26.0641 42.7135 26.1068C42.8589 26.1496 42.9944 26.2204 43.1124 26.3155C43.2303 26.4106 43.3285 26.528 43.4011 26.661C43.4737 26.794 43.5193 26.94 43.5355 27.0907C43.5517 27.2413 43.538 27.3937 43.4953 27.539C43.4526 27.6844 43.3817 27.82 43.2866 27.9379L39.6743 32.4192H56.4339L52.8216 27.9379C52.7265 27.82 52.6556 27.6844 52.6129 27.539C52.5702 27.3937 52.5565 27.2413 52.5727 27.0907C52.5888 26.94 52.6345 26.794 52.7071 26.661C52.7797 26.528 52.8778 26.4106 52.9958 26.3155C53.1137 26.2204 53.2493 26.1496 53.3947 26.1068C53.54 26.0641 53.6924 26.0505 53.843 26.0667C53.9937 26.0828 54.1397 26.1285 54.2727 26.2011ZM38.4161 39.334H57.6919L57.6921 34.7269H38.4161V39.334Z" fill="#3A5DB6"/>
</g>
<defs>
<clipPath id="clip0_1149_33">
<rect width="60" height="60" fill="white"/>
</clipPath>
</defs>
</svg>
