<svg width="60" height="60" viewBox="0 0 60 60" fill="none" xmlns="http://www.w3.org/2000/svg">
<g clip-path="url(#clip0_1149_74)">
<path fill-rule="evenodd" clip-rule="evenodd" d="M50.5083 0C48.0881 0.00312455 45.7602 0.970642 43.9996 2.70517C42.239 4.4397 41.1783 6.81051 41.034 9.33392H1.13883C0.8368 9.33394 0.547152 9.45929 0.333584 9.68236C0.120017 9.90543 2.29202e-05 10.208 0 10.5234V58.8105C0 58.9667 0.0294565 59.1214 0.0866883 59.2657C0.14392 59.41 0.227807 59.5411 0.333558 59.6516C0.439308 59.7621 0.564852 59.8497 0.703022 59.9094C0.841191 59.9692 0.989277 60 1.13883 60H50.5083C53.0248 59.997 55.4374 58.9515 57.2169 57.0928C58.9963 55.2341 59.9972 52.7141 60 50.0856V9.9142C59.9972 7.28571 58.9962 4.76572 57.2168 2.90709C55.4374 1.04846 53.0248 0.00297489 50.5083 0ZM2.2775 57.6209V11.713H41.0165V50.0856C41.0164 51.5188 41.3145 52.935 41.8901 54.2361C42.4656 55.5372 43.305 56.6921 44.35 57.6209H2.2775ZM50.5081 57.6209C49.0812 57.621 47.6864 57.1791 46.5 56.3511C45.3136 55.5231 44.389 54.3463 43.8429 52.9694C43.2968 51.5925 43.1539 50.0775 43.4323 48.6157C43.7106 47.154 44.3977 45.8114 45.4066 44.7575C46.4155 43.7037 47.7009 42.986 49.1004 42.6952C50.4998 42.4044 51.9503 42.5536 53.2686 43.1239C54.5868 43.6942 55.7135 44.6601 56.5062 45.8992C57.299 47.1384 57.7221 48.5952 57.7221 50.0856C57.72 52.0833 56.9593 53.9986 55.6069 55.4112C54.2545 56.8239 52.4209 57.6186 50.5083 57.6209H50.5081ZM50.5081 40.1714C49.1359 40.1713 47.7801 40.4827 46.5345 41.0838C45.2889 41.685 44.1832 42.5617 43.294 43.6532V9.9142C43.2917 8.92312 43.4766 7.94129 43.8381 7.02496C44.1996 6.10863 44.7306 5.2758 45.4007 4.57414C46.0708 3.87249 46.8669 3.31579 47.7433 2.93596C48.6197 2.55613 49.5592 2.36062 50.5081 2.36062C51.4569 2.36062 52.3964 2.55613 53.2728 2.93596C54.1492 3.31579 54.9453 3.87249 55.6154 4.57414C56.2855 5.2758 56.8166 6.10863 57.1781 7.02496C57.5396 7.94129 57.7244 8.92312 57.7221 9.9142V43.6532C56.8329 42.5618 55.7272 41.6851 54.4817 41.0839C53.2361 40.4827 51.8804 40.1714 50.5083 40.1714H50.5081ZM50.5083 45.4053C49.622 45.4053 48.7557 45.6798 48.0188 46.194C47.2819 46.7083 46.7076 47.4393 46.3684 48.2945C46.0293 49.1497 45.9405 50.0907 46.1134 50.9986C46.2863 51.9065 46.7131 52.7405 47.3398 53.395C47.9664 54.0496 48.7649 54.4953 49.6341 54.6759C50.5033 54.8565 51.4042 54.7638 52.223 54.4096C53.0418 54.0553 53.7416 53.4554 54.234 52.6858C54.7263 51.9161 54.9891 51.0112 54.9891 50.0855C54.9878 48.8447 54.5153 47.6551 53.6752 46.7776C52.8352 45.9002 51.6963 45.4067 50.5083 45.4053ZM50.5083 52.3867C50.0725 52.3867 49.6466 52.2518 49.2843 51.9989C48.922 51.746 48.6396 51.3866 48.4728 50.9662C48.3061 50.5457 48.2624 50.083 48.3474 49.6366C48.4324 49.1902 48.6423 48.7802 48.9504 48.4583C49.2585 48.1365 49.6511 47.9173 50.0784 47.8285C50.5058 47.7397 50.9488 47.7853 51.3514 47.9595C51.754 48.1337 52.0981 48.4286 52.3401 48.807C52.5822 49.1855 52.7114 49.6304 52.7114 50.0855C52.7107 50.6956 52.4784 51.2805 52.0654 51.7119C51.6523 52.1433 51.0924 52.3859 50.5083 52.3866V52.3867ZM8.64833 19.7925H34.9176C35.2197 19.7925 35.5093 19.9179 35.7228 20.1409C35.9363 20.364 36.0563 20.6665 36.0563 20.982V48.352C36.0563 48.5082 36.0269 48.6629 35.9696 48.8072C35.9124 48.9516 35.8285 49.0827 35.7228 49.1931C35.617 49.3036 35.4915 49.3912 35.3533 49.451C35.2151 49.5108 35.067 49.5416 34.9175 49.5416H28.8815V50.1526C28.8838 50.3103 28.856 50.4669 28.7998 50.6133C28.7436 50.7597 28.6601 50.8929 28.5541 51.0053C28.4481 51.1176 28.3218 51.2069 28.1826 51.2678C28.0433 51.3287 27.8938 51.3601 27.7428 51.3601C27.5918 51.3601 27.4423 51.3287 27.303 51.2678C27.1637 51.2069 27.0374 51.1176 26.9314 51.0053C26.8254 50.8929 26.7419 50.7597 26.6857 50.6133C26.6295 50.4669 26.6017 50.3103 26.604 50.1526V49.5416H22.922V50.1526C22.9229 50.3094 22.8941 50.4648 22.8373 50.61C22.7805 50.7552 22.6968 50.8872 22.5909 50.9984C22.4851 51.1097 22.3592 51.1979 22.2206 51.2582C22.082 51.3184 21.9333 51.3494 21.7831 51.3494C21.633 51.3494 21.4843 51.3184 21.3457 51.2582C21.2071 51.1979 21.0812 51.1097 20.9754 50.9984C20.8695 50.8872 20.7858 50.7552 20.729 50.61C20.6721 50.4648 20.6434 50.3094 20.6443 50.1526V49.5416H8.64855C8.49899 49.5416 8.35089 49.5108 8.21271 49.451C8.07453 49.3913 7.94898 49.3036 7.84323 49.1932C7.73747 49.0827 7.65358 48.9516 7.59635 48.8072C7.53912 48.6629 7.50967 48.5082 7.50967 48.352V35.8213C7.23715 35.7559 6.99725 35.5879 6.83578 35.3495C6.6743 35.111 6.60256 34.8188 6.63425 34.5286C6.66595 34.2384 6.79887 33.9706 7.00762 33.7763C7.21636 33.582 7.48632 33.4747 7.76594 33.4751H9.53093C9.81055 33.4747 10.0805 33.582 10.2892 33.7763C10.498 33.9706 10.6309 34.2385 10.6626 34.5286C10.6943 34.8188 10.6225 35.111 10.4611 35.3495C10.2996 35.5879 10.0597 35.7559 9.78717 35.8213V39.1514H16.8101V22.1715H9.78717V25.8894C10.0597 25.9548 10.2996 26.1228 10.4611 26.3613C10.6225 26.5997 10.6943 26.8919 10.6626 27.1821C10.6309 27.4723 10.498 27.7401 10.2892 27.9344C10.0805 28.1288 9.81055 28.236 9.53093 28.2356H7.76573C7.4861 28.236 7.21615 28.1288 7.0074 27.9345C6.79865 27.7401 6.66574 27.4723 6.63404 27.1821C6.60235 26.8919 6.67408 26.5997 6.83556 26.3613C6.99703 26.1228 7.23694 25.9548 7.50945 25.8894V20.982C7.50946 20.6665 7.62946 20.364 7.84304 20.1409C8.05662 19.9178 8.34629 19.7925 8.64833 19.7925ZM28.8817 47.1625H33.7788L33.7786 22.1715H28.8816V29.1595C28.8779 29.4724 28.7563 29.7712 28.5431 29.9911C28.33 30.2111 28.0425 30.3344 27.7428 30.3344C27.4432 30.3344 27.1557 30.2111 26.9425 29.9911C26.7294 29.7712 26.6078 29.4724 26.6041 29.1595V22.1715H19.0877V34.4332H27.7429C27.8937 34.4313 28.0433 34.4606 28.183 34.5195C28.3228 34.5784 28.45 34.6657 28.5573 34.7764C28.6645 34.887 28.7496 35.0188 28.8078 35.1641C28.8659 35.3093 28.8958 35.4652 28.8958 35.6227C28.8958 35.7801 28.8659 35.936 28.8078 36.0812C28.7496 36.2265 28.6645 36.3583 28.5573 36.4689C28.45 36.5796 28.3228 36.6669 28.183 36.7258C28.0433 36.7847 27.8937 36.814 27.7429 36.8121H19.0877V40.341C19.0877 40.6564 18.9677 40.959 18.7542 41.182C18.5406 41.4051 18.2509 41.5304 17.9489 41.5304H9.78717V47.1625H20.6445V46.5518C20.6435 46.395 20.6723 46.2395 20.7291 46.0943C20.7859 45.9491 20.8697 45.8171 20.9755 45.7059C21.0814 45.5947 21.2072 45.5064 21.3459 45.4461C21.4845 45.3859 21.6332 45.3549 21.7833 45.3549C21.9335 45.3549 22.0821 45.3859 22.2208 45.4461C22.3594 45.5064 22.4852 45.5947 22.5911 45.7059C22.6969 45.8171 22.7807 45.9491 22.8375 46.0943C22.8943 46.2395 22.9231 46.395 22.9222 46.5518V47.1625H26.6042V46.5518C26.6019 46.3941 26.6297 46.2375 26.6859 46.0911C26.7421 45.9447 26.8256 45.8114 26.9316 45.6991C27.0375 45.5867 27.1638 45.4975 27.3031 45.4366C27.4424 45.3756 27.5919 45.3443 27.7429 45.3443C27.8939 45.3443 28.0434 45.3756 28.1827 45.4366C28.322 45.4975 28.4483 45.5867 28.5543 45.6991C28.6603 45.8114 28.7438 45.9447 28.8 46.0911C28.8562 46.2375 28.884 46.3941 28.8817 46.5518V47.1625Z" fill="#3A5DB6"/>
</g>
<defs>
<clipPath id="clip0_1149_74">
<rect width="60" height="60" fill="white"/>
</clipPath>
</defs>
</svg>
