<svg width="25" height="36" viewBox="0 0 25 36" fill="none" xmlns="http://www.w3.org/2000/svg">
<path d="M13.2299 34.805L24.3299 23.705C24.6907 23.3442 24.6907 22.7578 24.3299 22.397C23.9692 22.0363 23.3827 22.0363 23.022 22.397L13.5019 31.9171V1.7751C13.5019 1.2645 13.0875 0.850098 12.5769 0.850098C12.0663 0.850098 11.6519 1.2645 11.6519 1.7751V31.9171L2.13176 22.397C1.77101 22.0363 1.18456 22.0363 0.823811 22.397C0.642511 22.5783 0.553711 22.8151 0.553711 23.0519C0.553711 23.2887 0.644361 23.5255 0.823811 23.7068L11.9238 34.8068C12.2846 35.1676 12.871 35.1676 13.2318 34.8068L13.2299 34.805Z" fill="white"/>
</svg>
