<svg width="22" height="22" viewBox="0 0 22 22" fill="none" xmlns="http://www.w3.org/2000/svg">
<path d="M11 1.71875C16.097 1.71875 20.2812 5.84697 20.2812 11C20.2812 16.1258 16.13 20.2812 11 20.2812C5.87623 20.2812 1.71875 16.1321 1.71875 11C1.71875 5.878 5.86962 1.71875 11 1.71875ZM11 0.34375C5.11513 0.34375 0.34375 5.11685 0.34375 11C0.34375 16.8866 5.11513 21.6562 11 21.6562C16.8849 21.6562 21.6562 16.8866 21.6562 11C21.6562 5.11685 16.8849 0.34375 11 0.34375ZM9.45312 15.125H9.96875V9.96875H9.45312C9.16837 9.96875 8.9375 9.73788 8.9375 9.45312V9.10938C8.9375 8.82462 9.16837 8.59375 9.45312 8.59375H11.5156C11.8004 8.59375 12.0312 8.82462 12.0312 9.10938V15.125H12.5469C12.8316 15.125 13.0625 15.3559 13.0625 15.6406V15.9844C13.0625 16.2691 12.8316 16.5 12.5469 16.5H9.45312C9.16837 16.5 8.9375 16.2691 8.9375 15.9844V15.6406C8.9375 15.3559 9.16837 15.125 9.45312 15.125ZM11 4.8125C10.2406 4.8125 9.625 5.42811 9.625 6.1875C9.625 6.94689 10.2406 7.5625 11 7.5625C11.7594 7.5625 12.375 6.94689 12.375 6.1875C12.375 5.42811 11.7594 4.8125 11 4.8125Z" fill="#3A5DB6"/>
</svg>
