<svg width="60" height="60" viewBox="0 0 60 60" fill="none" xmlns="http://www.w3.org/2000/svg">
<g clip-path="url(#clip0_1149_50)">
<path fill-rule="evenodd" clip-rule="evenodd" d="M20.7898 57.6923H2.30759V11.6956H35.6309V27.6594C35.6327 27.9642 35.7551 28.2558 35.9713 28.4707C36.1875 28.6856 36.4799 28.8062 36.7847 28.8062C37.0895 28.8062 37.3819 28.6856 37.5981 28.4707C37.8143 28.2558 37.9367 27.9642 37.9386 27.6594V10.5418C37.9386 10.2358 37.817 9.94229 37.6006 9.72591C37.3842 9.50953 37.0908 9.38795 36.7847 9.38792H30.8387V5.4048C30.8387 5.17363 30.7693 4.9478 30.6394 4.75657C30.5095 4.56533 30.3252 4.41753 30.1103 4.33231L19.3948 0.0813106C19.1215 -0.0271035 18.8172 -0.0271035 18.5439 0.0813106L7.82829 4.33231C7.61342 4.41754 7.42911 4.56535 7.29924 4.75658C7.16938 4.94781 7.09995 5.17364 7.09996 5.4048V9.38792H1.15388C0.847861 9.38792 0.554373 9.5095 0.337979 9.72588C0.121586 9.94227 1.16124e-05 10.2358 0 10.5418V58.846C1.16124e-05 59.152 0.121586 59.4455 0.337979 59.6619C0.554373 59.8783 0.847861 59.9998 1.15388 59.9998H20.79C20.9427 60.0017 21.0942 59.9733 21.2359 59.9161C21.3775 59.859 21.5064 59.7743 21.615 59.667C21.7237 59.5597 21.8099 59.4319 21.8688 59.291C21.9277 59.15 21.958 58.9988 21.958 58.8461C21.958 58.6934 21.9277 58.5422 21.8688 58.4013C21.8099 58.2603 21.7237 58.1325 21.615 58.0252C21.5064 57.9179 21.3775 57.8332 21.2359 57.7761C21.0942 57.7189 20.9427 57.6905 20.79 57.6924L20.7898 57.6923ZM9.40755 6.18835L18.9693 2.39511L28.5309 6.18835V9.38792H9.40755V6.18835ZM41.0175 31.5689L59.3314 40.0612C59.6086 40.1903 59.8232 40.424 59.9282 40.7112C60.0331 40.9983 60.0199 41.3154 59.8912 41.5928C59.7626 41.8701 59.5292 42.0851 59.2422 42.1905C58.9552 42.2959 58.6381 42.2831 58.3606 42.1549L40.532 33.8875L22.7037 42.1549C22.4261 42.2831 22.109 42.2959 21.822 42.1905C21.535 42.0851 21.3016 41.8701 21.173 41.5928C21.0444 41.3154 21.0311 40.9983 21.136 40.7112C21.241 40.424 21.4556 40.1903 21.7328 40.0612L40.0466 31.5689C40.1987 31.4984 40.3644 31.4619 40.532 31.4619C40.6997 31.4619 40.8653 31.4984 41.0175 31.5689ZM53.3855 45.6051C53.6019 45.3887 53.8954 45.2671 54.2014 45.2671C54.5074 45.2671 54.8009 45.3887 55.0173 45.6051C55.2337 45.8215 55.3552 46.115 55.3552 46.421V58.8462C55.3552 59.1522 55.2337 59.4457 55.0173 59.6621C54.8009 59.8785 54.5074 60 54.2014 60.0001H26.8627C26.5567 60.0001 26.2632 59.8785 26.0468 59.6621C25.8304 59.4457 25.7088 59.1523 25.7088 58.8462V46.421C25.7069 46.2683 25.7354 46.1167 25.7925 45.9751C25.8497 45.8335 25.9344 45.7046 26.0417 45.5959C26.149 45.4873 26.2768 45.401 26.4177 45.3421C26.5587 45.2833 26.7099 45.2529 26.8626 45.2529C27.0153 45.2529 27.1665 45.2833 27.3074 45.3421C27.4483 45.401 27.5762 45.4873 27.6835 45.5959C27.7908 45.7046 27.8755 45.8335 27.9326 45.9751C27.9898 46.1167 28.0182 46.2683 28.0163 46.421V57.6924H35.0527V49.4664C35.0527 49.1604 35.1743 48.8669 35.3907 48.6505C35.607 48.4341 35.9005 48.3125 36.2066 48.3125H44.8573C45.1633 48.3125 45.4568 48.4341 45.6732 48.6505C45.8895 48.8669 46.0111 49.1604 46.0112 49.4664V57.6924H53.0475V46.421C53.0475 46.115 53.1691 45.8215 53.3855 45.6051ZM37.3604 50.6202V57.6924H43.7036V50.6202H37.3604ZM8.86092 16.8394H14.8595C15.0123 16.8376 15.1638 16.866 15.3054 16.9232C15.4471 16.9803 15.576 17.065 15.6846 17.1723C15.7933 17.2796 15.8795 17.4075 15.9384 17.5484C15.9973 17.6893 16.0276 17.8405 16.0276 17.9932C16.0276 18.1459 15.9973 18.2971 15.9384 18.438C15.8795 18.579 15.7933 18.7068 15.6846 18.8141C15.576 18.9214 15.4471 19.0061 15.3054 19.0632C15.1638 19.1204 15.0123 19.1488 14.8595 19.147H8.86092C8.70821 19.1488 8.55665 19.1204 8.41502 19.0632C8.27339 19.0061 8.14451 18.9214 8.03586 18.8141C7.92721 18.7068 7.84094 18.579 7.78206 18.438C7.72319 18.2971 7.69287 18.1459 7.69287 17.9932C7.69287 17.8405 7.72319 17.6893 7.78206 17.5484C7.84094 17.4075 7.92721 17.2796 8.03586 17.1723C8.14451 17.065 8.27339 16.9803 8.41502 16.9232C8.55665 16.866 8.70821 16.8376 8.86092 16.8394ZM14.8597 23.52H8.86108C8.5581 23.5246 8.26908 23.6482 8.05644 23.864C7.8438 24.0799 7.72461 24.3708 7.72461 24.6738C7.72461 24.9768 7.8438 25.2676 8.05644 25.4835C8.26908 25.6994 8.5581 25.823 8.86108 25.8275H14.8597C15.1627 25.823 15.4517 25.6994 15.6643 25.4835C15.877 25.2676 15.9962 24.9768 15.9962 24.6738C15.9962 24.3708 15.877 24.0799 15.6643 23.864C15.4517 23.6482 15.1627 23.5246 14.8597 23.52ZM8.86088 30.2002H14.8595C15.1643 30.2021 15.456 30.3245 15.6708 30.5406C15.8857 30.7568 16.0063 31.0492 16.0063 31.354C16.0063 31.6588 15.8857 31.9513 15.6708 32.1674C15.456 32.3836 15.1643 32.506 14.8595 32.5079H8.86088C8.55609 32.506 8.26442 32.3836 8.04957 32.1674C7.83471 31.9513 7.71411 31.6588 7.71411 31.354C7.71411 31.0492 7.83471 30.7568 8.04957 30.5406C8.26442 30.3245 8.55609 30.2021 8.86088 30.2002ZM14.8597 36.8804H8.86108C8.5581 36.8849 8.26908 37.0085 8.05644 37.2244C7.8438 37.4402 7.72461 37.7311 7.72461 38.0341C7.72461 38.3371 7.8438 38.628 8.05644 38.8439C8.26908 39.0597 8.5581 39.1833 8.86108 39.1879H14.8597C15.1627 39.1833 15.4517 39.0597 15.6643 38.8439C15.877 38.628 15.9962 38.3371 15.9962 38.0341C15.9962 37.7311 15.877 37.4402 15.6643 37.2244C15.4517 37.0085 15.1627 36.8849 14.8597 36.8804ZM8.86092 43.5606H14.8595C15.0123 43.5588 15.1638 43.5872 15.3054 43.6443C15.4471 43.7015 15.576 43.7861 15.6846 43.8935C15.7933 44.0008 15.8795 44.1286 15.9384 44.2695C15.9973 44.4104 16.0276 44.5616 16.0276 44.7144C16.0276 44.8671 15.9973 45.0183 15.9384 45.1592C15.8795 45.3001 15.7933 45.4279 15.6846 45.5353C15.576 45.6426 15.4471 45.7273 15.3054 45.7844C15.1638 45.8416 15.0123 45.87 14.8595 45.8681H8.86092C8.70821 45.87 8.55665 45.8416 8.41502 45.7844C8.27339 45.7273 8.14451 45.6426 8.03586 45.5353C7.92721 45.4279 7.84094 45.3001 7.78206 45.1592C7.72319 45.0183 7.69287 44.8671 7.69287 44.7144C7.69287 44.5616 7.72319 44.4104 7.78206 44.2695C7.84094 44.1286 7.92721 44.0008 8.03586 43.8935C8.14451 43.7861 8.27339 43.7015 8.41502 43.6443C8.55665 43.5872 8.70821 43.5588 8.86092 43.5606ZM14.8597 50.2407H8.86106C8.55753 50.2445 8.2677 50.3677 8.05438 50.5836C7.84106 50.7996 7.72144 51.0909 7.72144 51.3945C7.72144 51.698 7.84106 51.9894 8.05438 52.2053C8.2677 52.4213 8.55753 52.5445 8.86106 52.5482H14.8597C15.1632 52.5445 15.453 52.4213 15.6664 52.2053C15.8797 51.9894 15.9993 51.698 15.9993 51.3945C15.9993 51.0909 15.8797 50.7996 15.6664 50.5836C15.453 50.3677 15.1632 50.2445 14.8597 50.2407ZM23.0787 16.8399H29.0773C29.2295 16.8389 29.3803 16.8681 29.5211 16.9256C29.6619 16.9832 29.7899 17.0681 29.8978 17.1753C30.0057 17.2825 30.0914 17.4101 30.1498 17.5505C30.2082 17.691 30.2383 17.8416 30.2383 17.9937C30.2383 18.1459 30.2082 18.2965 30.1498 18.4369C30.0914 18.5774 30.0057 18.7049 29.8978 18.8121C29.7899 18.9194 29.6619 19.0042 29.5211 19.0618C29.3803 19.1194 29.2295 19.1485 29.0773 19.1476H23.0787C22.9266 19.1485 22.7758 19.1194 22.635 19.0618C22.4942 19.0042 22.3661 18.9194 22.2582 18.8121C22.1503 18.7049 22.0647 18.5774 22.0062 18.4369C21.9478 18.2965 21.9177 18.1459 21.9177 17.9937C21.9177 17.8416 21.9478 17.691 22.0062 17.5505C22.0647 17.4101 22.1503 17.2825 22.2582 17.1753C22.3661 17.0681 22.4942 16.9832 22.635 16.9256C22.7758 16.8681 22.9266 16.8389 23.0787 16.8399ZM29.0773 23.52H23.0787C22.9266 23.5191 22.7758 23.5483 22.635 23.6058C22.4942 23.6634 22.3661 23.7482 22.2582 23.8555C22.1503 23.9627 22.0647 24.0902 22.0062 24.2307C21.9478 24.3711 21.9177 24.5218 21.9177 24.6739C21.9177 24.826 21.9478 24.9767 22.0062 25.1171C22.0647 25.2576 22.1503 25.3851 22.2582 25.4923C22.3661 25.5996 22.4942 25.6844 22.635 25.742C22.7758 25.7995 22.9266 25.8287 23.0787 25.8278H29.0773C29.2295 25.8287 29.3803 25.7995 29.5211 25.742C29.6619 25.6844 29.7899 25.5996 29.8978 25.4923C30.0057 25.3851 30.0914 25.2576 30.1498 25.1171C30.2082 24.9767 30.2383 24.826 30.2383 24.6739C30.2383 24.5218 30.2082 24.3711 30.1498 24.2307C30.0914 24.0902 30.0057 23.9627 29.8978 23.8555C29.7899 23.7482 29.6619 23.6634 29.5211 23.6058C29.3803 23.5483 29.2295 23.5191 29.0773 23.52ZM23.0787 30.2003H29.0773C29.23 30.1984 29.3816 30.2268 29.5232 30.284C29.6649 30.3411 29.7937 30.4258 29.9024 30.5331C30.011 30.6405 30.0973 30.7683 30.1562 30.9092C30.2151 31.0501 30.2454 31.2013 30.2454 31.354C30.2454 31.5068 30.2151 31.658 30.1562 31.7989C30.0973 31.9398 30.011 32.0676 29.9024 32.1749C29.7937 32.2823 29.6649 32.367 29.5232 32.4241C29.3816 32.4812 29.23 32.5097 29.0773 32.5078H23.0787C22.926 32.5097 22.7744 32.4812 22.6328 32.4241C22.4912 32.367 22.3623 32.2823 22.2536 32.1749C22.145 32.0676 22.0587 31.9398 21.9998 31.7989C21.941 31.658 21.9106 31.5068 21.9106 31.354C21.9106 31.2013 21.941 31.0501 21.9998 30.9092C22.0587 30.7683 22.145 30.6405 22.2536 30.5331C22.3623 30.4258 22.4912 30.3411 22.6328 30.284C22.7744 30.2268 22.926 30.1984 23.0787 30.2003Z" fill="#3A5DB6"/>
</g>
<defs>
<clipPath id="clip0_1149_50">
<rect width="60" height="60" fill="white"/>
</clipPath>
</defs>
</svg>
